<svg xmlns="http://www.w3.org/2000/svg" fill="none" viewBox="-0.5 -0.5 16 16" stroke-linecap="round" stroke-linejoin="round" stroke="#000000" id="Cog-Two--Streamline-Mynaui" height="16" width="16">
  <desc>
    Cog Two Streamline Icon: https://streamlinehq.com
  </desc>
  <path stroke-miterlimit="1" d="M5.9375 7.5a1.5625 1.5625 0 1 1 3.125 0 1.5625 1.5625 0 1 1 -3.125 0" stroke-width="1"></path>
  <path d="M12.8125 9.875V5.125a1.1937499999999999 1.1937499999999999 0 0 0 -0.59 -1.028125l-4.1325 -2.375a1.1749999999999998 1.1749999999999998 0 0 0 -1.18 0l-4.1325 2.375A1.184375 1.184375 0 0 0 2.1875 5.125v4.751250000000001a1.1937499999999999 1.1937499999999999 0 0 0 0.59 1.0274999999999999l4.1325 2.375a1.1749999999999998 1.1749999999999998 0 0 0 1.18 0l4.1325 -2.375A1.184375 1.184375 0 0 0 12.8125 9.875" stroke-width="1"></path>
</svg>